# xmcd
#
# Track frame offsets:
#  150
#  5749
#  33881
#  54626
#  74458
#  93052
#  111509
#  123777
#  129836
#  159490
#  172260
#
# Disc length: 2467 seconds
#
# Revision: 0
# Processed by: cddbd v1.5.1PL2 Copyright (c) Steve Scherf et al.
# Submitted via: Collectorz.com_Music_Collector 6.9
#
DISCID=8e09a10b
DTITLE=Queen - Queen II
DYEAR=1974
DGENRE=Rock
TTITLE0=Procession
TTITLE1=Father To Son
TTITLE2=White Queen (As It Began)
TTITLE3=Some Day One Day
TTITLE4=The Loser In The End
TTITLE5=Ogre Battle
TTITLE6=The Fairy Feller's Master-Stroke
TTITLE7=Nevermore
TTITLE8=The March Of The Black Queen
TTITLE9=Funny How Love Is
TTITLE10=Seven Seas Of Rhye
EXTD=
EXTT0=
EXTT1=
EXTT2=
EXTT3=
EXTT4=
EXTT5=
EXTT6=
EXTT7=
EXTT8=
EXTT9=
EXTT10=
PLAYORDER=
